HIERARCHY
ROOT Hips
{
	OFFSET 0.000000 0.000000 0.000000
	CHANNELS 6 Xposition Yposition Zposition Zrotation Xrotation Yrotation
	JOINT Spine
	{
		OFFSET 0.000000 -0.000000 0.081624
		CHANNELS 6 Xposition Yposition Zposition Zrotation Xrotation Yrotation
		JOINT Spine1
		{
			OFFSET 0.000000 -0.000000 0.223658
			CHANNELS 6 Xposition Yposition Zposition Zrotation Xrotation Yrotation
			JOINT Neck
			{
				OFFSET 0.000000 -0.000000 0.223658
				CHANNELS 6 Xposition Yposition Zposition Zrotation Xrotation Yrotation
				JOINT Head
				{
					OFFSET 0.000000 -0.000000 0.109496
					CHANNELS 6 Xposition Yposition Zposition Zrotation Xrotation Yrotation
					End Site
					{
						OFFSET 0.000000 -0.000000 0.248855
					}
				}
			}
			JOINT LeftShoulder
			{
				OFFSET 0.038712 0.001691 0.204072
				CHANNELS 6 Xposition Yposition Zposition Zrotation Xrotation Yrotation
				JOINT LeftArm
				{
					OFFSET 0.112670 0.000000 0.000000
					CHANNELS 6 Xposition Yposition Zposition Zrotation Xrotation Yrotation
					JOINT LeftForeArm
					{
						OFFSET 0.324399 0.000000 0.000000
						CHANNELS 6 Xposition Yposition Zposition Zrotation Xrotation Yrotation
						JOINT LeftHand
						{
							OFFSET 0.295418 0.000000 0.000000
							CHANNELS 6 Xposition Yposition Zposition Zrotation Xrotation Yrotation
							End Site
							{
								OFFSET 0.149313 0.000000 0.000000
							}
						}
					}
				}
			}
			JOINT RightShoulder
			{
				OFFSET -0.038825 0.001691 0.204072
				CHANNELS 6 Xposition Yposition Zposition Zrotation Xrotation Yrotation
				JOINT RightArm
				{
					OFFSET -0.112670 0.000000 0.000000
					CHANNELS 6 Xposition Yposition Zposition Zrotation Xrotation Yrotation
					JOINT RightForeArm
					{
						OFFSET -0.324399 0.000000 0.000000
						CHANNELS 6 Xposition Yposition Zposition Zrotation Xrotation Yrotation
						JOINT RightHand
						{
							OFFSET -0.295418 0.000000 0.000000
							CHANNELS 6 Xposition Yposition Zposition Zrotation Xrotation Yrotation
							End Site
							{
								OFFSET -0.149313 0.000000 0.000000
							}
						}
					}
				}
			}
		}
	}
	JOINT LeftUpLeg
	{
		OFFSET 0.099542 0.000000 0.000000
		CHANNELS 6 Xposition Yposition Zposition Zrotation Xrotation Yrotation
		JOINT LeftLeg
		{
			OFFSET 0.000000 0.000000 -0.482893
			CHANNELS 6 Xposition Yposition Zposition Zrotation Xrotation Yrotation
			JOINT LeftFoot
			{
				OFFSET 0.000000 0.000000 -0.449402
				CHANNELS 6 Xposition Yposition Zposition Zrotation Xrotation Yrotation
				JOINT LeftToeBase
				{
					OFFSET 0.000000 -0.149313 -0.064702
					CHANNELS 6 Xposition Yposition Zposition Zrotation Xrotation Yrotation
					End Site
					{
						OFFSET 0.000000 -0.039817 -0.000000
					}
				}
			}
		}
	}
	JOINT RightUpLeg
	{
		OFFSET -0.099542 0.000000 0.000000
		CHANNELS 6 Xposition Yposition Zposition Zrotation Xrotation Yrotation
		JOINT RightLeg
		{
			OFFSET 0.000000 0.000000 -0.482893
			CHANNELS 6 Xposition Yposition Zposition Zrotation Xrotation Yrotation
			JOINT RightFoot
			{
				OFFSET 0.000000 0.000000 -0.449402
				CHANNELS 6 Xposition Yposition Zposition Zrotation Xrotation Yrotation
				JOINT RightToeBase
				{
					OFFSET 0.000000 -0.149313 -0.064702
					CHANNELS 6 Xposition Yposition Zposition Zrotation Xrotation Yrotation
					End Site
					{
						OFFSET 0.000000 -0.039817 -0.000000
					}
				}
			}
		}
	}
}
MOTION
Frames: 5
Frame Time: 0.041667
0.550700 0.257200 0.952725 -12.633468 0.163717 -2.995873 -0.000000 -0.000000 0.081624 0.035118 -3.287917 1.224093 0.000000 -0.000000 0.223658 3.070607 4.182860 3.729910 0.000000 -0.000000 0.223658 0.578726 15.354764 -4.288941 0.000000 -0.000000 0.109496 -0.293005 -5.107468 1.106262 0.038712 0.001691 0.204072 15.693555 12.204000 -0.579811 0.112670 -0.000000 -0.000000 -40.788035 0.792211 71.024870 0.324399 0.000000 0.000000 -9.713965 0.370752 -4.363102 0.295418 0.000000 -0.000000 -4.463109 -7.189435 -5.465478 -0.038825 0.001691 0.204072 21.170868 14.414788 -3.363886 -0.112670 0.000000 -0.000000 35.830305 0.556754 -57.585311 -0.324399 -0.000000 -0.000000 37.682290 2.532947 7.413561 -0.295418 -0.000000 0.000000 -3.215835 -16.249430 6.458156 0.099542 0.000000 0.000000 13.869909 -11.822578 0.570821 0.000000 0.000000 -0.482893 1.143591 12.115489 3.408077 -0.000000 0.000000 -0.449402 17.710862 -6.938046 -1.229820 0.000000 -0.149313 -0.064702 0.000000 0.000001 -0.000000 -0.099542 0.000000 0.000000 -0.457983 9.137395 3.829321 -0.000000 0.000000 -0.482893 4.707763 5.386949 -4.282432 -0.000000 0.000000 -0.449402 -5.989419 -15.430567 -0.009899 -0.000000 -0.149313 -0.064702 0.000001 0.000002 0.000000 
0.551475 0.237701 0.948446 -13.324252 0.260218 -2.871223 0.000000 0.000000 0.081624 0.027369 -3.036042 1.033390 -0.000000 -0.000000 0.223658 3.502291 4.189175 4.107825 0.000000 -0.000000 0.223658 0.568195 15.127409 -4.275030 -0.000000 0.000000 0.109496 0.056565 -5.775624 1.137942 0.038712 0.001691 0.204072 16.130105 12.387506 -0.406061 0.112670 0.000000 0.000000 -39.912207 1.183608 71.192947 0.324399 0.000000 0.000000 -8.132304 0.258467 -3.636819 0.295418 0.000000 0.000000 -4.308455 -6.050742 -5.354956 -0.038825 0.001691 0.204072 21.416627 14.281492 -3.305843 -0.112670 0.000000 0.000000 35.851994 0.575857 -57.519694 -0.324399 0.000000 0.000000 38.637670 2.724046 7.759753 -0.295418 -0.000000 0.000000 -3.306739 -16.072967 6.536150 0.099542 0.000000 0.000000 12.716791 -11.860496 0.374862 0.000000 0.000000 -0.482893 2.716960 6.438413 2.513861 0.000000 0.000000 -0.449402 18.244880 -2.375645 -2.773989 -0.000000 -0.149313 -0.064702 0.000002 0.000000 -0.000000 -0.099542 -0.000000 -0.000000 -0.527584 10.040673 4.046514 -0.000000 0.000000 -0.482893 4.742187 5.650429 -4.146377 -0.000000 0.000000 -0.449402 -5.645856 -16.661125 -0.143881 0.000000 -0.149313 -0.064702 -0.000002 -0.000001 0.000000 
0.552552 0.217448 0.944357 -13.943981 0.264608 -2.724830 0.000000 -0.000000 0.081624 0.019308 -2.781807 0.795842 -0.000000 -0.000000 0.223658 3.913231 4.282322 4.521473 0.000000 -0.000000 0.223658 0.558649 14.920075 -4.262389 -0.000000 0.000000 0.109496 0.359392 -6.465159 1.144250 0.038712 0.001691 0.204072 16.599168 12.592226 -0.226171 0.112670 0.000000 0.000000 -39.021369 1.441591 71.228559 0.324399 -0.000000 -0.000000 -6.589386 0.170277 -2.959341 0.295418 0.000000 0.000000 -4.177765 -4.682851 -5.479915 -0.038825 0.001691 0.204072 21.689583 14.213203 -3.239350 -0.112670 -0.000000 0.000000 35.792517 0.567708 -57.565893 -0.324399 -0.000000 -0.000000 39.378633 2.895855 8.080542 -0.295418 -0.000000 -0.000000 -3.237615 -15.825593 6.750400 0.099542 -0.000000 0.000000 10.563782 -11.731734 -0.137843 -0.000000 0.000000 -0.482893 5.605064 1.074777 1.997747 0.000000 0.000000 -0.449402 17.914444 2.889022 -3.981616 0.000000 -0.149313 -0.064702 0.000002 -0.000001 0.000001 -0.099542 -0.000000 0.000000 -0.663111 11.016340 4.385714 -0.000000 0.000000 -0.482893 5.069251 6.013582 -4.122670 -0.000000 0.000000 -0.449402 -5.348498 -17.658004 -0.450008 0.000000 -0.149313 -0.064702 -0.000001 -0.000001 0.000000 
0.553809 0.196771 0.940755 -14.465709 0.249785 -2.596452 0.000000 -0.000000 0.081624 0.014159 -2.616964 0.620736 0.000000 -0.000000 0.223658 4.302759 4.443226 4.867517 0.000000 -0.000000 0.223658 0.543740 14.748388 -4.197511 0.000000 -0.000000 0.109496 0.548733 -7.088744 1.088838 0.038712 0.001691 0.204072 16.885413 12.695191 -0.073507 0.112670 -0.000000 0.000000 -37.959278 1.672429 71.342371 0.324399 -0.000000 0.000000 -5.186826 0.109824 -2.426440 0.295418 0.000000 0.000000 -4.082895 -3.294072 -5.568681 -0.038825 0.001691 0.204072 21.951987 14.264748 -3.158316 -0.112670 -0.000000 -0.000000 35.707471 0.587308 -57.758921 -0.324399 0.000000 0.000000 39.974433 3.111735 8.541347 -0.295418 0.000000 0.000000 -3.207434 -15.586476 6.886850 0.099542 0.000000 0.000000 7.336830 -11.540303 -1.012344 0.000000 0.000000 -0.482893 9.825916 -3.483513 2.257628 0.000000 0.000000 -0.449402 16.749589 6.823879 -3.736451 -0.000000 -0.149313 -0.064702 -0.000000 0.000001 0.000001 -0.099542 0.000000 0.000000 -0.840539 11.912908 4.832200 -0.000000 0.000000 -0.482893 5.751820 6.610176 -4.154666 0.000000 -0.000000 -0.449402 -5.129979 -18.361589 -0.958710 0.000000 -0.149313 -0.064702 -0.000002 -0.000001 -0.000001 
0.555184 0.175525 0.937777 -14.854700 0.230545 -2.516427 -0.000000 -0.000000 0.081624 0.013057 -2.490794 0.601471 -0.000000 -0.000000 0.223658 4.673245 4.573770 5.096804 0.000000 -0.000000 0.223658 0.523066 14.557061 -4.091713 -0.000000 -0.000000 0.109496 0.508800 -7.511359 0.958974 0.038712 0.001691 0.204072 16.912612 12.667269 0.011399 0.112670 -0.000000 0.000000 -36.703821 1.937613 71.621131 0.324399 -0.000000 0.000000 -3.975056 0.071652 -2.066721 0.295418 0.000000 0.000000 -3.965289 -2.052381 -5.558183 -0.038825 0.001691 0.204072 22.211309 14.421804 -3.095656 -0.112670 -0.000000 0.000000 35.490049 0.668182 -58.109317 -0.324399 0.000000 -0.000000 40.536940 3.361531 9.086031 -0.295418 0.000000 0.000000 -3.344184 -15.432476 6.939952 0.099542 -0.000000 -0.000000 4.225578 -11.395675 -1.928690 0.000000 0.000000 -0.482893 13.934470 -6.571920 3.115591 0.000000 0.000000 -0.449402 15.292899 7.780748 -1.615524 -0.000000 -0.149313 -0.064702 -0.000002 0.000000 -0.000001 -0.099542 0.000000 -0.000000 -1.187506 12.637259 5.374264 -0.000000 0.000000 -0.482893 6.780586 7.599095 -4.158751 0.000000 0.000000 -0.449402 -4.876145 -18.766980 -1.683839 0.000000 -0.149313 -0.064702 -0.000001 -0.000001 0.000001 
